#!OML:ASF H:\Terrain\Patient Classification 1\Walking\liu\liu.ASF
:FULLY-SPECIFIED
:DEGREES
32
root 8.61846 16.4305 -25.393 4.83385 2.30252 -4.23696
lowerback -4.60809 -0.216789 0.712845
upperback -1.86861 -0.356467 3.75466
thorax 0.682393 -0.169183 3.44626
lowerneck -23.6484 -4.79314 -12.6967
upperneck 24.2246 -5.90201 13.0459
head 12.8202 -2.09986 6.18389
rclavicle 3.03147e-015 1.03368e-014
rhumerus -34.5096 12.5189 -84.8776
rradius 27.1658
rwrist -11.6295
rhand -28.3215 -30.9071
rfingers 7.12502
rthumb -1.69639 -60.8801
lclavicle 3.03147e-015 1.03368e-014
lhumerus -31.1508 -2.84669 91.1404
lradius 17.409
lwrist -10.1612
lhand 0.0787969 -17.1211
lfingers 7.12502
lthumb 25.6658 11.1688
rfemur -9.99886 -1.54568 30.3381
rtibia 22.3703
rfoot -13.8747 6.55315
rtoes -9.93918
lfemur -29.9835 11.1992 -18.3592
ltibia 66.2825
lfoot -8.59472 24.0882
ltoes -19.1276
33
root 8.61669 16.4124 -25.2239 4.8605 2.08202 -4.59658
lowerback -4.46002 -0.0836441 1.16634
upperback -1.81834 -0.194978 3.74447
thorax 0.641064 -0.0900653 3.18778
lowerneck -23.4205 -4.66354 -12.9122
upperneck 23.8278 -5.77916 13.5712
head 12.6246 -2.00409 6.43709
rclavicle -1.18712e-014 3.4191e-014
rhumerus -34.0183 14.4782 -85.7485
rradius 28.0066
rwrist -13.1466
rhand -28.5559 -26.4655
rfingers 7.12502
rthumb -1.9228 -56.4366
lclavicle -1.18712e-014 3.4191e-014
lhumerus -31.8912 -0.186286 89.3948
lradius 16.168
lwrist -12.9847
lhand 3.82814 -16.3842
lfingers 7.12502
lthumb 29.2516 11.3361
rfemur -9.35197 -1.2724 30.8103
rtibia 22.3132
rfoot -14.135 6.30573
rtoes -5.21074
lfemur -31.4665 11.2109 -18.3051
ltibia 65.2902
lfoot -11.5897 18.5455
ltoes -15.7211
34
root 8.61908 16.3909 -25.0485 4.80436 1.81936 -4.64622
lowerback -4.23598 -0.0124202 1.28845
upperback -1.77487 -0.0981802 3.67715
thorax 0.555824 -0.0423071 3.05346
lowerneck -23.0863 -4.45103 -13.0365
upperneck 23.3944 -5.52058 13.9014
head 12.3598 -1.86731 6.6125
rclavicle 6.75868e-015 -1.63003e-014
rhumerus -33.56 15.956 -86.2789
rradius 29.3151
rwrist -13.5052
rhand -27.9983 -26.0325
rfingers 7.12502
rthumb -1.38423 -56.0077
lclavicle 6.75868e-015 -1.63003e-014
lhumerus -32.9417 2.81465 87.3992
lradius 15.2158
lwrist -16.0861
lhand 0.145642 -18.8083
lfingers 7.12502
lthumb 25.7299 9.47236
rfemur -8.49673 -0.950613 30.8822
rtibia 22.1811
rfoot -14.4062 6.1532
rtoes 0.131226
lfemur -32.6423 11.2182 -18.6015
ltibia 63.9973
lfoot -12.5816 14.4226
ltoes -8.45316
35
root 8.62701 16.3826 -24.8641 4.79676 1.59245 -4.68545
lowerback -4.1576 0.0675346 1.41927
upperback -1.68221 0.0030129 3.61495
thorax 0.602881 0.00720251 2.91988
lowerneck -23.1434 -4.43434 -12.8846
upperneck 23.1484 -5.43888 13.6201
head 12.2455 -1.84834 6.47062
rclavicle 1.38528e-015 1.82882e-014
rhumerus -32.9211 16.9705 -86.4915
rradius 30.5021
rwrist -13.5074
rhand -27.8228 -26.8933
rfingers 7.12502
rthumb -1.2148 -56.8696
lclavicle 1.38528e-015 1.82882e-014
lhumerus -34.0018 5.3368 85.5387
lradius 14.3633
lwrist -18.548
lhand -9.0427 -23.3051
lfingers 7.12502
lthumb 16.9053 5.97915
rfemur -7.65991 -1.08789 30.9073
rtibia 22.0627
rfoot -14.8811 6.35101
rtoes -11.6277
lfemur -33.776 11.0271 -18.8389
ltibia 62.4107
lfoot -12.7693 12.703
ltoes -4.4572
36
root 8.63137 16.3819 -24.6825 4.85217 1.44798 -4.81764
lowerback -4.14461 0.199461 1.63025
upperback -1.53775 0.165849 3.57059
thorax 0.738193 0.0874439 2.76308
lowerneck -23.3485 -4.61726 -12.6499
upperneck 22.847 -5.59767 13.1459
head 12.1695 -1.9488 6.19318
rclavicle 1.66216e-014 -7.95139e-016
rhumerus -32.2348 18.0697 -86.6571
rradius 31.6225
rwrist -14.1583
rhand -28.011 -26.959
rfingers 7.12502
rthumb -1.39655 -56.9342
lclavicle 1.66216e-014 -7.95139e-016
lhumerus -34.8649 7.53002 83.6824
lradius 13.3824
lwrist -20.679
lhand -14.9779 -30.7415
lfingers 7.12502
lthumb 11.1861 -1.05974
rfemur -6.9371 -1.33882 31.066
rtibia 21.8876
rfoot -15.2517 6.60319
rtoes -14.961
lfemur -34.8523 10.6388 -18.8568
ltibia 60.4782
lfoot -12.8112 12.5076
ltoes -6.14502
37
root 8.63643 16.3663 -24.503 5.03408 1.25898 -5.00563
lowerback -4.14178 0.327893 1.87281
upperback -1.55175 0.328354 3.56118
thorax 0.717686 0.168236 2.62446
lowerneck -23.0132 -4.61134 -12.7288
upperneck 22.3676 -5.6059 13.3233
head 11.9295 -1.94599 6.24915
rclavicle 2.06457e-014 -1.98785e-015
rhumerus -31.6909 19.3908 -86.8909
rradius 32.6152
rwrist -14.9918
rhand -27.6719 -27.3136
rfingers 7.12502
rthumb -1.06907 -57.2906
lclavicle 2.06457e-014 -1.98785e-015
lhumerus -36.0573 10.4688 81.2025
lradius 12.4071
lwrist -23.7829
lhand -14.3083 -39.902
lfingers 7.12502
lthumb 11.8318 -10.2563
rfemur -6.25888 -1.43339 31.2542
rtibia 21.5282
rfoot -15.245 6.81391
rtoes 0.851483
lfemur -35.8261 10.5333 -18.9678
ltibia 58.219
lfoot -12.8639 12.2634
ltoes -14.4494
